0
SECTION
2
HEADER
9
$ACADVER
1
AC1015
9
$INSBASE
10
0.0
20
0.0
30
0.0
0
ENDSEC
0
SECTION
2
TABLES
0
TABLE
2
LAYER
70
2
0
LAYER
2
0
70
0
62
7
6
CONTINUOUS
0
LAYER
2
body_0
70
0
62
7
6
CONTINUOUS
0
ENDTAB
0
ENDSEC
0
SECTION
2
ENTITIES
0
ELLIPSE
8
body_0
10
192.500000
20
-60.500000
30
3.000000
11
1.100000
21
0.0
31
0.0
210
0.0
220
0.0
230
-1.000000
40
1.000000
41
0.0
42
6.283185
0
LINE
8
body_0
10
191.400000
20
-60.500000
30
3.000000
11
191.400000
21
-60.500000
31
0.0
0
ELLIPSE
8
body_0
10
192.500000
20
-60.500000
30
0.0
11
1.100000
21
0.0
31
0.0
210
0.0
220
0.0
230
1.000000
40
1.000000
41
0.0
42
6.283185
0
ELLIPSE
8
body_0
10
208.500000
20
-100.000000
30
3.000000
11
1.100000
21
0.0
31
0.0
210
0.0
220
0.0
230
-1.000000
40
1.000000
41
0.0
42
6.283185
0
LINE
8
body_0
10
207.400000
20
-100.000000
30
3.000000
11
207.400000
21
-100.000000
31
0.0
0
ELLIPSE
8
body_0
10
208.500000
20
-100.000000
30
0.0
11
1.100000
21
0.0
31
0.0
210
0.0
220
0.0
230
1.000000
40
1.000000
41
0.0
42
6.283185
0
ELLIPSE
8
body_0
10
192.500000
20
-140.000000
30
3.000000
11
1.100000
21
0.0
31
0.0
210
0.0
220
0.0
230
-1.000000
40
1.000000
41
0.0
42
6.283185
0
LINE
8
body_0
10
191.400000
20
-140.000000
30
3.000000
11
191.400000
21
-140.000000
31
0.0
0
ELLIPSE
8
body_0
10
192.500000
20
-140.000000
30
0.0
11
1.100000
21
0.0
31
0.0
210
0.0
220
0.0
230
1.000000
40
1.000000
41
0.0
42
6.283185
0
ELLIPSE
8
body_0
10
107.500000
20
-140.000000
30
3.000000
11
1.100000
21
0.0
31
0.0
210
0.0
220
0.0
230
-1.000000
40
1.000000
41
0.0
42
6.283185
0
LINE
8
body_0
10
106.400000
20
-140.000000
30
3.000000
11
106.400000
21
-140.000000
31
0.0
0
ELLIPSE
8
body_0
10
107.500000
20
-140.000000
30
0.0
11
1.100000
21
0.0
31
0.0
210
0.0
220
0.0
230
1.000000
40
1.000000
41
0.0
42
6.283185
0
ELLIPSE
8
body_0
10
90.500000
20
-100.000000
30
3.000000
11
1.100000
21
0.0
31
0.0
210
0.0
220
0.0
230
-1.000000
40
1.000000
41
0.0
42
6.283185
0
LINE
8
body_0
10
89.400000
20
-100.000000
30
3.000000
11
89.400000
21
-100.000000
31
0.0
0
ELLIPSE
8
body_0
10
90.500000
20
-100.000000
30
0.0
11
1.100000
21
0.0
31
0.0
210
0.0
220
0.0
230
1.000000
40
1.000000
41
0.0
42
6.283185
0
ELLIPSE
8
body_0
10
107.500000
20
-60.500000
30
3.000000
11
1.100000
21
0.0
31
0.0
210
0.0
220
0.0
230
-1.000000
40
1.000000
41
0.0
42
6.283185
0
LINE
8
body_0
10
106.400000
20
-60.500000
30
3.000000
11
106.400000
21
-60.500000
31
0.0
0
ELLIPSE
8
body_0
10
107.500000
20
-60.500000
30
0.0
11
1.100000
21
0.0
31
0.0
210
0.0
220
0.0
230
1.000000
40
1.000000
41
0.0
42
6.283185
0
ELLIPSE
8
body_0
10
109.140000
20
-77.000000
30
3.000000
11
1.500000
21
0.0
31
0.0
210
0.0
220
0.0
230
-1.000000
40
1.000000
41
0.0
42
6.283185
0
LINE
8
body_0
10
107.640000
20
-77.000000
30
3.000000
11
107.640000
21
-77.000000
31
0.0
0
ELLIPSE
8
body_0
10
109.140000
20
-77.000000
30
0.0
11
1.500000
21
0.0
31
0.0
210
0.0
220
0.0
230
1.000000
40
1.000000
41
0.0
42
6.283185
0
ELLIPSE
8
body_0
10
109.140000
20
-121.000000
30
3.000000
11
1.500000
21
0.0
31
0.0
210
0.0
220
0.0
230
-1.000000
40
1.000000
41
0.0
42
6.283185
0
LINE
8
body_0
10
107.640000
20
-121.000000
30
3.000000
11
107.640000
21
-121.000000
31
0.0
0
ELLIPSE
8
body_0
10
109.140000
20
-121.000000
30
0.0
11
1.500000
21
0.0
31
0.0
210
0.0
220
0.0
230
1.000000
40
1.000000
41
0.0
42
6.283185
0
ELLIPSE
8
body_0
10
185.220000
20
-121.000000
30
3.000000
11
1.500000
21
0.0
31
0.0
210
0.0
220
0.0
230
-1.000000
40
1.000000
41
0.0
42
6.283185
0
LINE
8
body_0
10
183.720000
20
-121.000000
30
3.000000
11
183.720000
21
-121.000000
31
0.0
0
ELLIPSE
8
body_0
10
185.220000
20
-121.000000
30
0.0
11
1.500000
21
0.0
31
0.0
210
0.0
220
0.0
230
1.000000
40
1.000000
41
0.0
42
6.283185
0
ELLIPSE
8
body_0
10
185.220000
20
-77.000000
30
3.000000
11
1.500000
21
0.0
31
0.0
210
0.0
220
0.0
230
-1.000000
40
1.000000
41
0.0
42
6.283185
0
LINE
8
body_0
10
183.720000
20
-77.000000
30
3.000000
11
183.720000
21
-77.000000
31
0.0
0
ELLIPSE
8
body_0
10
185.220000
20
-77.000000
30
0.0
11
1.500000
21
0.0
31
0.0
210
0.0
220
0.0
230
1.000000
40
1.000000
41
0.0
42
6.283185
0
LINE
8
body_0
10
218.464466
20
-55.035534
30
0.0
11
218.464466
21
-145.000000
31
0.0
0
LINE
8
body_0
10
218.464466
20
-55.035534
30
0.0
11
218.464466
21
-55.035534
31
3.000000
0
LINE
8
body_0
10
218.464466
20
-145.000000
30
3.000000
11
218.464466
21
-55.035534
31
3.000000
0
LINE
8
body_0
10
218.464466
20
-145.000000
30
0.0
11
218.464466
21
-145.000000
31
3.000000
0
ELLIPSE
8
body_0
10
213.464466
20
-145.000000
30
0.0
11
-0.000000
21
-5.000000
31
0.0
210
0.0
220
0.0
230
1.000000
40
1.000000
41
0.0
42
1.570796
0
ELLIPSE
8
body_0
10
213.464466
20
-145.000000
30
3.000000
11
-0.000000
21
-5.000000
31
0.0
210
0.0
220
0.0
230
1.000000
40
1.000000
41
0.0
42
1.570796
0
LINE
8
body_0
10
213.464466
20
-150.000000
30
0.0
11
213.464466
21
-150.000000
31
3.000000
0
LINE
8
body_0
10
213.464466
20
-150.000000
30
0.0
11
85.000000
21
-150.000000
31
0.0
0
LINE
8
body_0
10
85.000000
20
-150.000000
30
3.000000
11
213.464466
21
-150.000000
31
3.000000
0
LINE
8
body_0
10
85.000000
20
-150.000000
30
0.0
11
85.000000
21
-150.000000
31
3.000000
0
ELLIPSE
8
body_0
10
85.000000
20
-145.000000
30
0.0
11
-5.000000
21
0.000000
31
0.0
210
0.0
220
0.0
230
1.000000
40
1.000000
41
0.0
42
1.570796
0
ELLIPSE
8
body_0
10
85.000000
20
-145.000000
30
3.000000
11
-5.000000
21
0.000000
31
0.0
210
0.0
220
0.0
230
1.000000
40
1.000000
41
0.0
42
1.570796
0
LINE
8
body_0
10
80.000000
20
-145.000000
30
0.0
11
80.000000
21
-145.000000
31
3.000000
0
LINE
8
body_0
10
80.000000
20
-145.000000
30
0.0
11
80.000000
21
-55.000000
31
0.0
0
LINE
8
body_0
10
80.000000
20
-55.000000
30
3.000000
11
80.000000
21
-145.000000
31
3.000000
0
LINE
8
body_0
10
80.000000
20
-55.000000
30
0.0
11
80.000000
21
-55.000000
31
3.000000
0
ELLIPSE
8
body_0
10
85.000000
20
-55.000000
30
0.0
11
0.000000
21
5.000000
31
0.0
210
0.0
220
0.0
230
1.000000
40
1.000000
41
0.0
42
1.570796
0
ELLIPSE
8
body_0
10
85.000000
20
-55.000000
30
3.000000
11
0.000000
21
5.000000
31
0.0
210
0.0
220
0.0
230
1.000000
40
1.000000
41
0.0
42
1.570796
0
LINE
8
body_0
10
85.000000
20
-50.000000
30
0.0
11
85.000000
21
-50.000000
31
3.000000
0
LINE
8
body_0
10
85.000000
20
-50.000000
30
0.0
11
213.464466
21
-50.035534
31
0.0
0
LINE
8
body_0
10
213.464466
20
-50.035534
30
3.000000
11
85.000000
21
-50.000000
31
3.000000
0
LINE
8
body_0
10
213.464466
20
-50.035534
30
0.0
11
213.464466
21
-50.035534
31
3.000000
0
ELLIPSE
8
body_0
10
213.464466
20
-55.035534
30
0.0
11
5.000000
21
-0.000000
31
0.0
210
0.0
220
0.0
230
1.000000
40
1.000000
41
0.0
42
1.570796
0
ELLIPSE
8
body_0
10
213.464466
20
-55.035534
30
3.000000
11
5.000000
21
-0.000000
31
0.0
210
0.0
220
0.0
230
1.000000
40
1.000000
41
0.0
42
1.570796
0
ENDSEC
0
EOF
