0
SECTION
2
HEADER
9
$ACADVER
1
AC1015
9
$INSBASE
10
0.0
20
0.0
30
0.0
0
ENDSEC
0
SECTION
2
TABLES
0
TABLE
2
LAYER
70
2
0
LAYER
2
0
70
0
62
7
6
CONTINUOUS
0
LAYER
2
body_0
70
0
62
7
6
CONTINUOUS
0
ENDTAB
0
ENDSEC
0
SECTION
2
ENTITIES
0
LINE
8
body_0
10
183.000003
20
-73.000001
30
10.000000
11
111.000002
21
-73.000001
31
10.000000
0
LINE
8
body_0
10
183.000003
20
-73.000001
30
13.000000
11
183.000003
21
-73.000001
31
10.000000
0
LINE
8
body_0
10
111.000002
20
-73.000001
30
13.000000
11
183.000003
21
-73.000001
31
13.000000
0
LINE
8
body_0
10
111.000002
20
-73.000001
30
13.000000
11
111.000002
21
-73.000001
31
10.000000
0
LINE
8
body_0
10
111.000002
20
-73.000001
30
10.000000
11
111.000002
21
-125.000002
31
10.000000
0
LINE
8
body_0
10
111.000002
20
-125.000002
30
13.000000
11
111.000002
21
-73.000001
31
13.000000
0
LINE
8
body_0
10
111.000002
20
-125.000002
30
13.000000
11
111.000002
21
-125.000002
31
10.000000
0
LINE
8
body_0
10
111.000002
20
-125.000002
30
10.000000
11
183.000003
21
-125.000002
31
10.000000
0
LINE
8
body_0
10
183.000003
20
-125.000002
30
13.000000
11
111.000002
21
-125.000002
31
13.000000
0
LINE
8
body_0
10
183.000003
20
-125.000002
30
13.000000
11
183.000003
21
-125.000002
31
10.000000
0
LINE
8
body_0
10
183.000003
20
-125.000002
30
10.000000
11
183.000003
21
-73.000001
31
10.000000
0
LINE
8
body_0
10
183.000003
20
-73.000001
30
13.000000
11
183.000003
21
-125.000002
31
13.000000
0
LINE
8
body_0
10
202.000003
20
-66.500001
30
10.000000
11
215.000003
21
-66.500001
31
10.000000
0
LINE
8
body_0
10
202.000003
20
-66.500001
30
13.000000
11
202.000003
21
-66.500001
31
10.000000
0
LINE
8
body_0
10
215.000003
20
-66.500001
30
13.000000
11
202.000003
21
-66.500001
31
13.000000
0
LINE
8
body_0
10
215.000003
20
-66.500001
30
13.000000
11
215.000003
21
-66.500001
31
10.000000
0
LINE
8
body_0
10
215.000003
20
-66.500001
30
10.000000
11
215.000003
21
-54.000001
31
10.000000
0
LINE
8
body_0
10
215.000003
20
-54.000001
30
13.000000
11
215.000003
21
-66.500001
31
13.000000
0
LINE
8
body_0
10
215.000003
20
-54.000001
30
13.000000
11
215.000003
21
-54.000001
31
10.000000
0
LINE
8
body_0
10
215.000003
20
-54.000001
30
10.000000
11
202.000003
21
-54.000001
31
10.000000
0
LINE
8
body_0
10
202.000003
20
-54.000001
30
13.000000
11
215.000003
21
-54.000001
31
13.000000
0
LINE
8
body_0
10
202.000003
20
-54.000001
30
13.000000
11
202.000003
21
-54.000001
31
10.000000
0
LINE
8
body_0
10
202.000003
20
-54.000001
30
10.000000
11
202.000003
21
-66.500001
31
10.000000
0
LINE
8
body_0
10
202.000003
20
-66.500001
30
13.000000
11
202.000003
21
-54.000001
31
13.000000
0
LINE
8
body_0
10
87.999998
20
-57.499999
30
10.000000
11
98.484308
21
-57.499999
31
10.000000
0
LINE
8
body_0
10
87.999998
20
-57.499999
30
13.000000
11
87.999998
21
-57.499999
31
10.000000
0
LINE
8
body_0
10
98.484308
20
-57.499999
30
13.000000
11
87.999998
21
-57.499999
31
13.000000
0
LINE
8
body_0
10
98.484308
20
-57.499999
30
13.000000
11
98.484308
21
-57.499999
31
10.000000
0
LINE
8
body_0
10
98.484308
20
-57.499999
30
10.000000
11
98.484308
21
-50.017767
31
10.000000
0
LINE
8
body_0
10
98.484308
20
-50.017767
30
13.000000
11
98.484308
21
-57.499999
31
13.000000
0
LINE
8
body_0
10
98.484308
20
-50.017767
30
13.000000
11
98.484308
21
-50.017767
31
10.000000
0
LINE
8
body_0
10
98.484308
20
-50.017767
30
10.000000
11
87.999998
21
-50.017767
31
10.000000
0
LINE
8
body_0
10
87.999998
20
-50.017767
30
13.000000
11
98.484308
21
-50.017767
31
13.000000
0
LINE
8
body_0
10
87.999998
20
-50.017767
30
13.000000
11
87.999998
21
-50.017767
31
10.000000
0
LINE
8
body_0
10
87.999998
20
-50.017767
30
10.000000
11
87.999998
21
-57.499999
31
10.000000
0
LINE
8
body_0
10
87.999998
20
-57.499999
30
13.000000
11
87.999998
21
-50.017767
31
13.000000
0
LINE
8
body_0
10
213.000003
20
-135.500002
30
10.000000
11
203.500003
21
-135.500002
31
10.000000
0
LINE
8
body_0
10
213.000003
20
-135.500002
30
13.000000
11
213.000003
21
-135.500002
31
10.000000
0
LINE
8
body_0
10
203.500003
20
-135.500002
30
13.000000
11
213.000003
21
-135.500002
31
13.000000
0
LINE
8
body_0
10
203.500003
20
-135.500002
30
13.000000
11
203.500003
21
-135.500002
31
10.000000
0
LINE
8
body_0
10
203.500003
20
-135.500002
30
10.000000
11
203.500003
21
-143.500002
31
10.000000
0
LINE
8
body_0
10
203.500003
20
-143.500002
30
13.000000
11
203.500003
21
-135.500002
31
13.000000
0
LINE
8
body_0
10
203.500003
20
-143.500002
30
13.000000
11
203.500003
21
-143.500002
31
10.000000
0
LINE
8
body_0
10
203.500003
20
-143.500002
30
10.000000
11
213.000003
21
-143.500002
31
10.000000
0
LINE
8
body_0
10
213.000003
20
-143.500002
30
13.000000
11
203.500003
21
-143.500002
31
13.000000
0
LINE
8
body_0
10
213.000003
20
-143.500002
30
13.000000
11
213.000003
21
-143.500002
31
10.000000
0
LINE
8
body_0
10
213.000003
20
-143.500002
30
10.000000
11
213.000003
21
-135.500002
31
10.000000
0
LINE
8
body_0
10
213.000003
20
-135.500002
30
13.000000
11
213.000003
21
-143.500002
31
13.000000
0
LINE
8
body_0
10
181.599996
20
-67.399999
30
10.000000
11
181.599996
21
-53.399999
31
10.000000
0
LINE
8
body_0
10
181.599996
20
-67.399999
30
13.000000
11
181.599996
21
-67.399999
31
10.000000
0
LINE
8
body_0
10
181.599996
20
-53.399999
30
13.000000
11
181.599996
21
-67.399999
31
13.000000
0
LINE
8
body_0
10
181.599996
20
-53.399999
30
13.000000
11
181.599996
21
-53.399999
31
10.000000
0
LINE
8
body_0
10
181.599996
20
-53.399999
30
10.000000
11
167.599996
21
-53.399999
31
10.000000
0
LINE
8
body_0
10
167.599996
20
-53.399999
30
13.000000
11
181.599996
21
-53.399999
31
13.000000
0
LINE
8
body_0
10
167.599996
20
-53.399999
30
13.000000
11
167.599996
21
-53.399999
31
10.000000
0
LINE
8
body_0
10
167.599996
20
-53.399999
30
10.000000
11
167.599996
21
-67.399999
31
10.000000
0
LINE
8
body_0
10
167.599996
20
-67.399999
30
13.000000
11
167.599996
21
-53.399999
31
13.000000
0
LINE
8
body_0
10
167.599996
20
-67.399999
30
13.000000
11
167.599996
21
-67.399999
31
10.000000
0
LINE
8
body_0
10
167.599996
20
-67.399999
30
10.000000
11
181.599996
21
-67.399999
31
10.000000
0
LINE
8
body_0
10
181.599996
20
-67.399999
30
13.000000
11
167.599996
21
-67.399999
31
13.000000
0
LINE
8
body_0
10
157.063669
20
-67.409990
30
10.000000
11
157.063669
21
-53.409990
31
10.000000
0
LINE
8
body_0
10
157.063669
20
-67.409990
30
13.000000
11
157.063669
21
-67.409990
31
10.000000
0
LINE
8
body_0
10
157.063669
20
-53.409990
30
13.000000
11
157.063669
21
-67.409990
31
13.000000
0
LINE
8
body_0
10
157.063669
20
-53.409990
30
13.000000
11
157.063669
21
-53.409990
31
10.000000
0
LINE
8
body_0
10
157.063669
20
-53.409990
30
10.000000
11
143.063669
21
-53.409990
31
10.000000
0
LINE
8
body_0
10
143.063669
20
-53.409990
30
13.000000
11
157.063669
21
-53.409990
31
13.000000
0
LINE
8
body_0
10
143.063669
20
-53.409990
30
13.000000
11
143.063669
21
-53.409990
31
10.000000
0
LINE
8
body_0
10
143.063669
20
-53.409990
30
10.000000
11
143.063669
21
-67.409990
31
10.000000
0
LINE
8
body_0
10
143.063669
20
-67.409990
30
13.000000
11
143.063669
21
-53.409990
31
13.000000
0
LINE
8
body_0
10
143.063669
20
-67.409990
30
13.000000
11
143.063669
21
-67.409990
31
10.000000
0
LINE
8
body_0
10
143.063669
20
-67.409990
30
10.000000
11
157.063669
21
-67.409990
31
10.000000
0
LINE
8
body_0
10
157.063669
20
-67.409990
30
13.000000
11
143.063669
21
-67.409990
31
13.000000
0
LINE
8
body_0
10
132.499997
20
-53.399999
30
10.000000
11
118.499997
21
-53.399999
31
10.000000
0
LINE
8
body_0
10
132.499997
20
-53.399999
30
13.000000
11
132.499997
21
-53.399999
31
10.000000
0
LINE
8
body_0
10
118.499997
20
-53.399999
30
13.000000
11
132.499997
21
-53.399999
31
13.000000
0
LINE
8
body_0
10
118.499997
20
-53.399999
30
13.000000
11
118.499997
21
-53.399999
31
10.000000
0
LINE
8
body_0
10
118.499997
20
-53.399999
30
10.000000
11
118.499997
21
-67.399999
31
10.000000
0
LINE
8
body_0
10
118.499997
20
-67.399999
30
13.000000
11
118.499997
21
-53.399999
31
13.000000
0
LINE
8
body_0
10
118.499997
20
-67.399999
30
13.000000
11
118.499997
21
-67.399999
31
10.000000
0
LINE
8
body_0
10
118.499997
20
-67.399999
30
10.000000
11
132.499997
21
-67.399999
31
10.000000
0
LINE
8
body_0
10
132.499997
20
-67.399999
30
13.000000
11
118.499997
21
-67.399999
31
13.000000
0
LINE
8
body_0
10
132.499997
20
-67.399999
30
13.000000
11
132.499997
21
-67.399999
31
10.000000
0
LINE
8
body_0
10
132.499997
20
-67.399999
30
10.000000
11
132.499997
21
-53.399999
31
10.000000
0
LINE
8
body_0
10
132.499997
20
-53.399999
30
13.000000
11
132.499997
21
-67.399999
31
13.000000
0
LINE
8
body_0
10
181.399996
20
-146.399997
30
10.000000
11
181.399996
21
-132.399997
31
10.000000
0
LINE
8
body_0
10
181.399996
20
-146.399997
30
13.000000
11
181.399996
21
-146.399997
31
10.000000
0
LINE
8
body_0
10
181.399996
20
-132.399997
30
13.000000
11
181.399996
21
-146.399997
31
13.000000
0
LINE
8
body_0
10
181.399996
20
-132.399997
30
13.000000
11
181.399996
21
-132.399997
31
10.000000
0
LINE
8
body_0
10
181.399996
20
-132.399997
30
10.000000
11
167.399996
21
-132.399997
31
10.000000
0
LINE
8
body_0
10
167.399996
20
-132.399997
30
13.000000
11
181.399996
21
-132.399997
31
13.000000
0
LINE
8
body_0
10
167.399996
20
-132.399997
30
13.000000
11
167.399996
21
-132.399997
31
10.000000
0
LINE
8
body_0
10
167.399996
20
-132.399997
30
10.000000
11
167.399996
21
-146.399997
31
10.000000
0
LINE
8
body_0
10
167.399996
20
-146.399997
30
13.000000
11
167.399996
21
-132.399997
31
13.000000
0
LINE
8
body_0
10
167.399996
20
-146.399997
30
13.000000
11
167.399996
21
-146.399997
31
10.000000
0
LINE
8
body_0
10
167.399996
20
-146.399997
30
10.000000
11
181.399996
21
-146.399997
31
10.000000
0
LINE
8
body_0
10
181.399996
20
-146.399997
30
13.000000
11
167.399996
21
-146.399997
31
13.000000
0
LINE
8
body_0
10
215.599995
20
-118.899997
30
10.000000
11
215.599995
21
-104.899997
31
10.000000
0
LINE
8
body_0
10
215.599995
20
-118.899997
30
13.000000
11
215.599995
21
-118.899997
31
10.000000
0
LINE
8
body_0
10
215.599995
20
-104.899997
30
13.000000
11
215.599995
21
-118.899997
31
13.000000
0
LINE
8
body_0
10
215.599995
20
-104.899997
30
13.000000
11
215.599995
21
-104.899997
31
10.000000
0
LINE
8
body_0
10
215.599995
20
-104.899997
30
10.000000
11
201.599995
21
-104.899997
31
10.000000
0
LINE
8
body_0
10
201.599995
20
-104.899997
30
13.000000
11
215.599995
21
-104.899997
31
13.000000
0
LINE
8
body_0
10
201.599995
20
-104.899997
30
13.000000
11
201.599995
21
-104.899997
31
10.000000
0
LINE
8
body_0
10
201.599995
20
-104.899997
30
10.000000
11
201.599995
21
-118.899997
31
10.000000
0
LINE
8
body_0
10
201.599995
20
-118.899997
30
13.000000
11
201.599995
21
-104.899997
31
13.000000
0
LINE
8
body_0
10
201.599995
20
-118.899997
30
13.000000
11
201.599995
21
-118.899997
31
10.000000
0
LINE
8
body_0
10
201.599995
20
-118.899997
30
10.000000
11
215.599995
21
-118.899997
31
10.000000
0
LINE
8
body_0
10
215.599995
20
-118.899997
30
13.000000
11
201.599995
21
-118.899997
31
13.000000
0
LINE
8
body_0
10
215.699995
20
-94.899998
30
10.000000
11
215.699995
21
-80.899998
31
10.000000
0
LINE
8
body_0
10
215.699995
20
-94.899998
30
13.000000
11
215.699995
21
-94.899998
31
10.000000
0
LINE
8
body_0
10
215.699995
20
-80.899998
30
13.000000
11
215.699995
21
-94.899998
31
13.000000
0
LINE
8
body_0
10
215.699995
20
-80.899998
30
13.000000
11
215.699995
21
-80.899998
31
10.000000
0
LINE
8
body_0
10
215.699995
20
-80.899998
30
10.000000
11
201.699995
21
-80.899998
31
10.000000
0
LINE
8
body_0
10
201.699995
20
-80.899998
30
13.000000
11
215.699995
21
-80.899998
31
13.000000
0
LINE
8
body_0
10
201.699995
20
-80.899998
30
13.000000
11
201.699995
21
-80.899998
31
10.000000
0
LINE
8
body_0
10
201.699995
20
-80.899998
30
10.000000
11
201.699995
21
-94.899998
31
10.000000
0
LINE
8
body_0
10
201.699995
20
-94.899998
30
13.000000
11
201.699995
21
-80.899998
31
13.000000
0
LINE
8
body_0
10
201.699995
20
-94.899998
30
13.000000
11
201.699995
21
-94.899998
31
10.000000
0
LINE
8
body_0
10
201.699995
20
-94.899998
30
10.000000
11
215.699995
21
-94.899998
31
10.000000
0
LINE
8
body_0
10
215.699995
20
-94.899998
30
13.000000
11
201.699995
21
-94.899998
31
13.000000
0
LINE
8
body_0
10
156.999997
20
-146.499997
30
10.000000
11
156.999997
21
-132.499997
31
10.000000
0
LINE
8
body_0
10
156.999997
20
-146.499997
30
13.000000
11
156.999997
21
-146.499997
31
10.000000
0
LINE
8
body_0
10
156.999997
20
-132.499997
30
13.000000
11
156.999997
21
-146.499997
31
13.000000
0
LINE
8
body_0
10
156.999997
20
-132.499997
30
13.000000
11
156.999997
21
-132.499997
31
10.000000
0
LINE
8
body_0
10
156.999997
20
-132.499997
30
10.000000
11
142.999997
21
-132.499997
31
10.000000
0
LINE
8
body_0
10
142.999997
20
-132.499997
30
13.000000
11
156.999997
21
-132.499997
31
13.000000
0
LINE
8
body_0
10
142.999997
20
-132.499997
30
13.000000
11
142.999997
21
-132.499997
31
10.000000
0
LINE
8
body_0
10
142.999997
20
-132.499997
30
10.000000
11
142.999997
21
-146.499997
31
10.000000
0
LINE
8
body_0
10
142.999997
20
-146.499997
30
13.000000
11
142.999997
21
-132.499997
31
13.000000
0
LINE
8
body_0
10
142.999997
20
-146.499997
30
13.000000
11
142.999997
21
-146.499997
31
10.000000
0
LINE
8
body_0
10
142.999997
20
-146.499997
30
10.000000
11
156.999997
21
-146.499997
31
10.000000
0
LINE
8
body_0
10
156.999997
20
-146.499997
30
13.000000
11
142.999997
21
-146.499997
31
13.000000
0
LINE
8
body_0
10
132.499997
20
-146.499997
30
10.000000
11
132.499997
21
-132.499997
31
10.000000
0
LINE
8
body_0
10
132.499997
20
-146.499997
30
13.000000
11
132.499997
21
-146.499997
31
10.000000
0
LINE
8
body_0
10
132.499997
20
-132.499997
30
13.000000
11
132.499997
21
-146.499997
31
13.000000
0
LINE
8
body_0
10
132.499997
20
-132.499997
30
13.000000
11
132.499997
21
-132.499997
31
10.000000
0
LINE
8
body_0
10
132.499997
20
-132.499997
30
10.000000
11
118.499997
21
-132.499997
31
10.000000
0
LINE
8
body_0
10
118.499997
20
-132.499997
30
13.000000
11
132.499997
21
-132.499997
31
13.000000
0
LINE
8
body_0
10
118.499997
20
-132.499997
30
13.000000
11
118.499997
21
-132.499997
31
10.000000
0
LINE
8
body_0
10
118.499997
20
-132.499997
30
10.000000
11
118.499997
21
-146.499997
31
10.000000
0
LINE
8
body_0
10
118.499997
20
-146.499997
30
13.000000
11
118.499997
21
-132.499997
31
13.000000
0
LINE
8
body_0
10
118.499997
20
-146.499997
30
13.000000
11
118.499997
21
-146.499997
31
10.000000
0
LINE
8
body_0
10
118.499997
20
-146.499997
30
10.000000
11
132.499997
21
-146.499997
31
10.000000
0
LINE
8
body_0
10
132.499997
20
-146.499997
30
13.000000
11
118.499997
21
-146.499997
31
13.000000
0
LINE
8
body_0
10
97.500001
20
-119.000002
30
10.000000
11
97.500001
21
-105.000002
31
10.000000
0
LINE
8
body_0
10
97.500001
20
-119.000002
30
13.000000
11
97.500001
21
-119.000002
31
10.000000
0
LINE
8
body_0
10
97.500001
20
-105.000002
30
13.000000
11
97.500001
21
-119.000002
31
13.000000
0
LINE
8
body_0
10
97.500001
20
-105.000002
30
13.000000
11
97.500001
21
-105.000002
31
10.000000
0
LINE
8
body_0
10
97.500001
20
-105.000002
30
10.000000
11
83.500001
21
-105.000002
31
10.000000
0
LINE
8
body_0
10
83.500001
20
-105.000002
30
13.000000
11
97.500001
21
-105.000002
31
13.000000
0
LINE
8
body_0
10
83.500001
20
-105.000002
30
13.000000
11
83.500001
21
-105.000002
31
10.000000
0
LINE
8
body_0
10
83.500001
20
-105.000002
30
10.000000
11
83.500001
21
-119.000002
31
10.000000
0
LINE
8
body_0
10
83.500001
20
-119.000002
30
13.000000
11
83.500001
21
-105.000002
31
13.000000
0
LINE
8
body_0
10
83.500001
20
-119.000002
30
13.000000
11
83.500001
21
-119.000002
31
10.000000
0
LINE
8
body_0
10
83.500001
20
-119.000002
30
10.000000
11
97.500001
21
-119.000002
31
10.000000
0
LINE
8
body_0
10
97.500001
20
-119.000002
30
13.000000
11
83.500001
21
-119.000002
31
13.000000
0
LINE
8
body_0
10
97.500000
20
-80.912383
30
10.000000
11
83.500000
21
-80.912383
31
10.000000
0
LINE
8
body_0
10
97.500000
20
-80.912383
30
13.000000
11
97.500000
21
-80.912383
31
10.000000
0
LINE
8
body_0
10
83.500000
20
-80.912383
30
13.000000
11
97.500000
21
-80.912383
31
13.000000
0
LINE
8
body_0
10
83.500000
20
-80.912383
30
13.000000
11
83.500000
21
-80.912383
31
10.000000
0
LINE
8
body_0
10
83.500000
20
-80.912383
30
10.000000
11
83.500000
21
-94.912383
31
10.000000
0
LINE
8
body_0
10
83.500000
20
-94.912383
30
13.000000
11
83.500000
21
-80.912383
31
13.000000
0
LINE
8
body_0
10
83.500000
20
-94.912383
30
13.000000
11
83.500000
21
-94.912383
31
10.000000
0
LINE
8
body_0
10
83.500000
20
-94.912383
30
10.000000
11
97.500000
21
-94.912383
31
10.000000
0
LINE
8
body_0
10
97.500000
20
-94.912383
30
13.000000
11
83.500000
21
-94.912383
31
13.000000
0
LINE
8
body_0
10
97.500000
20
-94.912383
30
13.000000
11
97.500000
21
-94.912383
31
10.000000
0
LINE
8
body_0
10
97.500000
20
-94.912383
30
10.000000
11
97.500000
21
-80.912383
31
10.000000
0
LINE
8
body_0
10
97.500000
20
-80.912383
30
13.000000
11
97.500000
21
-94.912383
31
13.000000
0
ELLIPSE
8
body_0
10
107.500000
20
-140.000000
30
10.000000
11
1.100000
21
0.0
31
0.0
210
0.0
220
0.0
230
1.000000
40
1.000000
41
0.0
42
6.283185
0
LINE
8
body_0
10
106.400000
20
-140.000000
30
10.000000
11
106.400000
21
-140.000000
31
13.000000
0
ELLIPSE
8
body_0
10
107.500000
20
-140.000000
30
13.000000
11
1.100000
21
0.0
31
0.0
210
0.0
220
0.0
230
-1.000000
40
1.000000
41
0.0
42
6.283185
0
ELLIPSE
8
body_0
10
90.500000
20
-100.000000
30
10.000000
11
1.100000
21
0.0
31
0.0
210
0.0
220
0.0
230
1.000000
40
1.000000
41
0.0
42
6.283185
0
LINE
8
body_0
10
89.400000
20
-100.000000
30
10.000000
11
89.400000
21
-100.000000
31
13.000000
0
ELLIPSE
8
body_0
10
90.500000
20
-100.000000
30
13.000000
11
1.100000
21
0.0
31
0.0
210
0.0
220
0.0
230
-1.000000
40
1.000000
41
0.0
42
6.283185
0
ELLIPSE
8
body_0
10
107.500000
20
-60.500000
30
10.000000
11
1.100000
21
0.0
31
0.0
210
0.0
220
0.0
230
1.000000
40
1.000000
41
0.0
42
6.283185
0
LINE
8
body_0
10
106.400000
20
-60.500000
30
10.000000
11
106.400000
21
-60.500000
31
13.000000
0
ELLIPSE
8
body_0
10
107.500000
20
-60.500000
30
13.000000
11
1.100000
21
0.0
31
0.0
210
0.0
220
0.0
230
-1.000000
40
1.000000
41
0.0
42
6.283185
0
ELLIPSE
8
body_0
10
192.500000
20
-60.500000
30
10.000000
11
1.100000
21
0.0
31
0.0
210
0.0
220
0.0
230
1.000000
40
1.000000
41
0.0
42
6.283185
0
LINE
8
body_0
10
191.400000
20
-60.500000
30
10.000000
11
191.400000
21
-60.500000
31
13.000000
0
ELLIPSE
8
body_0
10
192.500000
20
-60.500000
30
13.000000
11
1.100000
21
0.0
31
0.0
210
0.0
220
0.0
230
-1.000000
40
1.000000
41
0.0
42
6.283185
0
ELLIPSE
8
body_0
10
192.500000
20
-140.000000
30
10.000000
11
1.100000
21
0.0
31
0.0
210
0.0
220
0.0
230
1.000000
40
1.000000
41
0.0
42
6.283185
0
LINE
8
body_0
10
191.400000
20
-140.000000
30
10.000000
11
191.400000
21
-140.000000
31
13.000000
0
ELLIPSE
8
body_0
10
192.500000
20
-140.000000
30
13.000000
11
1.100000
21
0.0
31
0.0
210
0.0
220
0.0
230
-1.000000
40
1.000000
41
0.0
42
6.283185
0
ELLIPSE
8
body_0
10
208.500000
20
-100.000000
30
10.000000
11
1.100000
21
0.0
31
0.0
210
0.0
220
0.0
230
1.000000
40
1.000000
41
0.0
42
6.283185
0
LINE
8
body_0
10
207.400000
20
-100.000000
30
10.000000
11
207.400000
21
-100.000000
31
13.000000
0
ELLIPSE
8
body_0
10
208.500000
20
-100.000000
30
13.000000
11
1.100000
21
0.0
31
0.0
210
0.0
220
0.0
230
-1.000000
40
1.000000
41
0.0
42
6.283185
0
LINE
8
body_0
10
213.464466
20
-150.000000
30
10.000000
11
85.000000
21
-150.000000
31
10.000000
0
LINE
8
body_0
10
213.464466
20
-150.000000
30
10.000000
11
213.464466
21
-150.000000
31
13.000000
0
LINE
8
body_0
10
85.000000
20
-150.000000
30
13.000000
11
213.464466
21
-150.000000
31
13.000000
0
LINE
8
body_0
10
85.000000
20
-150.000000
30
10.000000
11
85.000000
21
-150.000000
31
13.000000
0
ELLIPSE
8
body_0
10
85.000000
20
-145.000000
30
10.000000
11
-5.000000
21
0.000000
31
0.0
210
0.0
220
0.0
230
1.000000
40
1.000000
41
0.0
42
1.570796
0
ELLIPSE
8
body_0
10
85.000000
20
-145.000000
30
13.000000
11
-5.000000
21
0.000000
31
0.0
210
0.0
220
0.0
230
1.000000
40
1.000000
41
0.0
42
1.570796
0
LINE
8
body_0
10
80.000000
20
-145.000000
30
10.000000
11
80.000000
21
-145.000000
31
13.000000
0
LINE
8
body_0
10
80.000000
20
-145.000000
30
10.000000
11
80.000000
21
-55.000000
31
10.000000
0
LINE
8
body_0
10
80.000000
20
-55.000000
30
13.000000
11
80.000000
21
-145.000000
31
13.000000
0
LINE
8
body_0
10
80.000000
20
-55.000000
30
10.000000
11
80.000000
21
-55.000000
31
13.000000
0
ELLIPSE
8
body_0
10
85.000000
20
-55.000000
30
10.000000
11
0.000000
21
5.000000
31
0.0
210
0.0
220
0.0
230
1.000000
40
1.000000
41
0.0
42
1.570796
0
ELLIPSE
8
body_0
10
85.000000
20
-55.000000
30
13.000000
11
0.000000
21
5.000000
31
0.0
210
0.0
220
0.0
230
1.000000
40
1.000000
41
0.0
42
1.570796
0
LINE
8
body_0
10
85.000000
20
-50.000000
30
10.000000
11
85.000000
21
-50.000000
31
13.000000
0
LINE
8
body_0
10
85.000000
20
-50.000000
30
10.000000
11
213.464466
21
-50.035534
31
10.000000
0
LINE
8
body_0
10
213.464466
20
-50.035534
30
13.000000
11
85.000000
21
-50.000000
31
13.000000
0
LINE
8
body_0
10
213.464466
20
-50.035534
30
10.000000
11
213.464466
21
-50.035534
31
13.000000
0
ELLIPSE
8
body_0
10
213.464466
20
-55.035534
30
10.000000
11
5.000000
21
-0.000000
31
0.0
210
0.0
220
0.0
230
1.000000
40
1.000000
41
0.0
42
1.570796
0
ELLIPSE
8
body_0
10
213.464466
20
-55.035534
30
13.000000
11
5.000000
21
-0.000000
31
0.0
210
0.0
220
0.0
230
1.000000
40
1.000000
41
0.0
42
1.570796
0
LINE
8
body_0
10
218.464466
20
-55.035534
30
10.000000
11
218.464466
21
-55.035534
31
13.000000
0
LINE
8
body_0
10
218.464466
20
-55.035534
30
10.000000
11
218.464466
21
-145.000000
31
10.000000
0
LINE
8
body_0
10
218.464466
20
-145.000000
30
13.000000
11
218.464466
21
-55.035534
31
13.000000
0
LINE
8
body_0
10
218.464466
20
-145.000000
30
10.000000
11
218.464466
21
-145.000000
31
13.000000
0
ELLIPSE
8
body_0
10
213.464466
20
-145.000000
30
10.000000
11
-0.000000
21
-5.000000
31
0.0
210
0.0
220
0.0
230
1.000000
40
1.000000
41
0.0
42
1.570796
0
ELLIPSE
8
body_0
10
213.464466
20
-145.000000
30
13.000000
11
-0.000000
21
-5.000000
31
0.0
210
0.0
220
0.0
230
1.000000
40
1.000000
41
0.0
42
1.570796
0
ENDSEC
0
EOF
